<svg width="96" height="96" xmlns="http://www.w3.org/2000/svg" xmlns:xlink="http://www.w3.org/1999/xlink" xml:space="preserve" overflow="hidden" viewBox="0 0 96 96" preserveAspectRatio="xMidYMid meet"><g><path d="M33 80 31.57 80C18.5526 80 8 69.4473 8 56.43L8 56.43C7.99953 40.579 19.3874 27.019 35 24.28L68.2 18.49C76.7069 16.7832 84.9866 22.2958 86.6934 30.8027 86.9046 31.8552 87.0073 32.9266 87 34L87 43.88C86.9998 45.2378 86.4602 46.54 85.5 47.5L85.5 47.5C84.54 48.4602 83.2378 48.9998 81.88 49L56.5 49C55.6716 49 55 49.6716 55 50.5L55 50.5C55 51.3284 55.6716 52 56.5 52L79.5 52C80.8807 52 82 53.1193 82 54.5L82 54.5C82 55.8807 80.8807 57 79.5 57L28 57C26.7018 57 25.4386 57.4211 24.4 58.2L24.4 58.2C22.8892 59.3331 22 61.1115 22 63L22 63C22 67.9706 26.0294 72 31 72L32.55 72C34.0468 71.9899 35.4127 71.1449 36.09 69.81L38.61 65.29C40.0857 62.6423 42.8789 61.0009 45.91 61L45.91 61C46.3518 61.0025 46.7079 61.3628 46.7054 61.8046 46.705 61.8705 46.6965 61.9362 46.68 62L43.47 71.45C43.162 72.4268 42.5307 73.2697 41.68 73.84L41.68 73.84C41.0614 74.2563 40.8975 75.0952 41.3137 75.7137 41.411 75.8583 41.5354 75.9827 41.68 76.08L41.68 76.08C42.533 76.646 43.1733 77.4798 43.5 78.45L46.35 87.01C46.632 87.7772 46.2386 88.6277 45.4714 88.9097 45.3202 88.9652 45.161 88.9957 45 89L45 89C42.5624 88.9997 40.3161 87.6795 39.13 85.55L37.5 82.61C36.593 80.9797 34.8655 79.9777 33 80Z" fill="#0B76A0"/><path d="M52.47 18.87C52.4905 18.9445 52.4468 19.0216 52.3722 19.0422 52.3256 19.055 52.2756 19.0429 52.24 19.01 51.46 18.34 49.49 17.09 45.57 17.09 43.66 17.09 42.85 14.53 43.96 13.02 45.19 11.35 47.7 11.75 49.21 12.92 50.72 14.09 52 17.48 52.47 18.87Z" fill="#0B76A0"/><path d="M55.05 18.67C55.0496 18.7418 55.1075 18.8003 55.1793 18.8007 55.2242 18.801 55.2661 18.778 55.29 18.74 56.3062 17.4393 57.7343 16.5225 59.34 16.14 60.64 15.74 60.65 13.84 59.58 13.05 58.51 12.26 56.79 12.97 56.01 14.05 55.23 15.13 55.1 17.56 55.05 18.67Z" fill="#0B76A0"/><path d="M53 14.34C53.0205 14.4146 53.0975 14.4584 53.1721 14.4379 53.2197 14.4248 53.2569 14.3876 53.27 14.34 53.6161 13.0332 54.2556 11.8225 55.14 10.8 55.81 9.97 54.97 8.71 53.93 8.67 52.89 8.63 52 9.84 52 10.91 52.1404 12.101 52.4784 13.2602 53 14.34Z" fill="#0B76A0"/></g></svg>