<svg width="96" height="96" xmlns="http://www.w3.org/2000/svg" xmlns:xlink="http://www.w3.org/1999/xlink" xml:space="preserve" overflow="hidden" viewBox="0 0 96 96" preserveAspectRatio="xMidYMid meet"><g><path d="M9.9 39.3C10.1 39.4 10.4 39.4 10.5 39.2 12.1 37.6 14.1 36.4 16.3 35.7 24.3 33.4 33.1 38.6 36.1 47.4 37.5 51.4 37.4 55.8 35.7 59.8 35.1 61.1 34.4 62.3 33.5 63.4 33.4 63.5 33.4 63.7 33.5 63.9 33.6 64.1 33.8 64.2 34 64.1 42.2 63.5 45.7 63.6 53.4 55.6 55.2 53.7 57.3 51.5 59.8 49 59.9 48.9 60 48.7 59.9 48.6 59.9 48.4 59.8 48.3 59.6 48.3 56.8 47.2 54.5 45.1 53.3 42.4 48 29.5 36.5 23.9 25.3 26.7 18.6 28.3 13 32.7 9.8 38.7 9.6 38.9 9.7 39.2 9.9 39.3Z" fill="#FF8A15"/><path d="M11.5 49C11.4 48.9 11.2 48.8 11.1 48.8 10.9 48.8 10.8 48.9 10.7 49.1 10.4 50 10.5 51.1 10.9 52 12 54.4 14.8 55.5 17.3 54.5 19.7 53.7 20.9 51.1 20.1 48.8 20.1 48.7 20 48.6 20 48.5L19.9 48.3C19.2 46.7 17.3 46 15.7 46.6 14.2 47.1 13.3 48.8 13.8 50.3 13.8 50.4 13.8 50.4 13.9 50.5 13.9 50.6 14 50.7 14.1 50.8 13 50.7 12 50 11.5 49Z" fill="#FF8A15"/><path d="M32.6 48.2C30.4 41.9 25 37.8 19.4 38.2 18.7 38.3 17.9 38.4 17.2 38.6 13.9 39.6 11.5 42.1 10.3 45.9 10.2 46.1 10.3 46.3 10.5 46.4 10.7 46.5 11 46.5 11.1 46.3 11.4 46 11.7 45.8 12 45.5 13.2 44.3 14.8 43.6 16.4 43.5 20 43.1 23.3 45.7 23.7 49.3 23.9 52.8 21.3 55.8 17.9 56.1 17.7 56.1 17.6 56.2 17.5 56.4 17.4 56.6 17.5 56.7 17.6 56.9 20.2 60.2 23.6 61.9 26.8 61.7 27.5 61.6 28.2 61.5 28.9 61.2 33.1 59.6 34.6 53.9 32.6 48.2Z" fill="#FF8A15"/><path d="M76.6 44C77.5 41.8 78.7 39.7 80 37.8 81.2 37.3 81.9 35.9 81.5 34.6 81.2 33.7 80.6 33.1 79.7 32.8 78.3 32.4 76.9 33.2 76.5 34.6 76.4 35 76.4 35.5 76.5 35.9 75 38.2 73.7 40.6 72.7 43.1L72.5 43.7C72.3 44.4 72 45 71.8 45.7 71.4 46.9 71 47.9 70.5 49 69.6 51.1 67.5 52.3 65.2 52.1L60.8 51.6C49.6 63.4 47.7 66.4 34 66.4 25.1 66.4 20 63.6 16.4 60L3.6 64.2C2.6 64.5 2 65.7 2.3 66.7 2.5 67.3 3 67.8 3.7 68 6.5 68.8 9.5 69.3 12.4 69.5 14.4 69.5 60.9 69.5 72.1 69.5 73.6 69.5 75 68.8 76 67.6 76.9 66.5 78 65 78.9 63.6 79.9 62.2 79.8 60.2 78.7 58.9L78.7 58.9C78.4 58.5 78.4 57.9 78.7 57.5 80.4 55.3 82.3 53.2 84.4 51.4 86.5 49.9 88.7 48.6 91 47.4 92.4 47.6 93.8 46.6 94 45.2 94.1 44.2 93.7 43.2 92.9 42.7 92.3 42.3 91.5 42.2 90.8 42.4 89.9 42.5 89.2 43.2 89 44 86.6 45.2 84.4 46.6 82.2 48.2 80 49.8 77.6 51.3 75.2 52.6 75.2 49.7 75.7 46.8 76.6 44Z" fill="#FF8A15"/></g></svg>