<svg width="96" height="96" xmlns="http://www.w3.org/2000/svg" xmlns:xlink="http://www.w3.org/1999/xlink" xml:space="preserve" overflow="hidden" viewBox="0 0 96 96" preserveAspectRatio="xMidYMid meet"><g><path d="M61.4 40.848C61.384 40.867 61.366 40.883 61.35 40.902L60.187 43.383C59.753 44.2951 60.1406 45.3864 61.0528 45.8204 61.3696 45.9711 61.723 46.0276 62.071 45.983 66.0143 45.4044 69.6788 43.61 72.554 40.85Z" fill="#61CBF4"/><path d="M17.8 66.371C18.854 70.771 16.193 72.303 12.889 75.733 10.889 77.808 9.798 79.489 10.042 81.914L10.042 81.914C10.5904 82.8636 11.7617 83.2538 12.77 82.823L20.351 79.423C21.2895 78.9519 22.0652 78.2103 22.578 77.294 22.973 76.6636 23.8043 76.4729 24.4347 76.8679 24.5578 76.9451 24.6677 77.0417 24.76 77.154L24.76 77.154C25.4104 77.9443 26.3136 78.4861 27.317 78.688L37.039 80.942C37.4713 81.0335 37.8958 80.7573 37.9873 80.325 38.0049 80.2422 38.0091 80.1572 38 80.073 37.7 77.056 36.128 75.132 33 73.237 27.6 69.966 25.577 67.09 25.217 62.865 24.7487 58.8005 25.672 54.6973 27.836 51.225 30.645 46.669 36.116 42.709 45.716 40.194L42.075 45.41C41.4437 46.3204 41.67 47.5702 42.5804 48.2015 43.0159 48.5035 43.5532 48.6209 44.075 48.528 50.5417 47.4342 56.375 43.9862 60.451 38.848L82.479 38.848C84.645 38.8463 86.4 37.09 86.4 34.924L86.4 34.924C86.3996 33.6239 85.7555 32.4084 84.68 31.678L79.907 28.438C76.567 20.823 67.657 11.578 49.546 13.869 46.1687 14.2929 42.8637 15.1691 39.72 16.474 38.5085 16.9653 37.1342 16.8405 36.031 16.139 32.9483 14.1265 29.3543 13.0373 25.673 13 23.0055 13.0366 20.3867 13.7195 18.041 14.99 17.0634 15.5148 16.6964 16.7328 17.2212 17.7103 17.3754 17.9974 17.597 18.2427 17.867 18.425L23.626 22.283C25.4587 23.5234 25.9388 26.0147 24.6983 27.8474 24.6438 27.928 24.5863 28.0066 24.526 28.083 20.17 33.683 17.891 40.735 16.902 45.683 15.837 51.022 15.433 56.483 17.8 66.371Z" fill="#61CBF4"/></g></svg>