<svg width="96" height="96" xmlns="http://www.w3.org/2000/svg" xmlns:xlink="http://www.w3.org/1999/xlink" xml:space="preserve" overflow="hidden" viewBox="0 0 96 96" preserveAspectRatio="xMidYMid meet"><g><path d="M76.124 14.5C76.1168 8.1517 70.9723 3.00716 64.624 3 64.2733 3 63.926 3.01567 63.582 3.047 59.6222 3.42297 56.1727 5.90436 54.557 9.539 53.338 12.302 53.2016 15.4222 54.175 18.281L59.667 35.149C59.952 36.046 59.8172 37.0237 59.3 37.81 58.8811 38.4735 58.1806 38.9078 57.4 38.988 57.31 38.996 57.218 39 57.124 39 56.9808 39.0003 56.8377 38.9899 56.696 38.969 55.5157 38.7398 54.6417 37.7385 54.574 36.538 53.608 26.068 49.268 23.306 43.624 22.5 32.735 20.944 16.624 31.5 20.624 53.5 20.677 53.787 20.731 54.062 20.787 54.338L28.624 46.5 36.589 46.5 25.947 57.142C25.3554 57.7061 25.0598 58.5132 25.147 59.326 25.3107 60.5705 26.3718 61.5007 27.627 61.5L41.627 61.5 41.627 90.5C41.627 91.8807 42.7463 93 44.127 93L51.485 93C52.803 93.0272 53.9328 92.0638 54.114 90.758 54.2565 89.3847 53.2587 88.1558 51.8854 88.0134 51.7985 88.0043 51.7113 87.9999 51.624 88L46.624 88 46.624 61.5 52.624 61.5 52.624 66.358C52.5968 67.676 53.5602 68.8058 54.866 68.987 56.2393 69.1295 57.4682 68.1317 57.6107 66.7583 57.6196 66.6725 57.624 66.5863 57.624 66.5L57.624 59C57.624 57.6193 56.5047 56.5 55.124 56.5L46.624 56.5 46.624 46.5 56.355 46.5C58.7221 46.5019 61.0124 45.6602 62.815 44.126 63.7298 43.4474 64.519 42.6142 65.147 41.664 66.8469 39.1028 67.2802 35.9041 66.323 32.983L60.728 15.8C60.3002 14.4635 60.499 13.0052 61.269 11.832 61.9182 10.808 63.0033 10.1406 64.21 10.023 64.346 10.01 64.484 10.004 64.624 10.004 67.1081 10.0068 69.1212 12.0199 69.124 14.504 69.124 14.517 69.124 14.529 69.124 14.542L69.124 25.875 69.224 25.875C72.0955 25.9256 74.5347 23.7848 74.857 20.931 74.948 19.791 74.6673 18.6522 74.057 17.685 75.312 17.1218 76.1208 15.8756 76.124 14.5ZM33.659 56.5 41.624 48.535 41.624 56.5Z" fill="#D86ECC"/></g></svg>