<svg width="96" height="96" xmlns="http://www.w3.org/2000/svg" xmlns:xlink="http://www.w3.org/1999/xlink" xml:space="preserve" overflow="hidden" viewBox="0 0 96 96" preserveAspectRatio="xMidYMid meet"><g><path d="M89.69 21.44C89.4528 20.2396 88.4969 19.3115 87.29 19.11 86.2771 18.9768 85.2975 18.6581 84.4 18.17L77.77 14.29C73.9984 11.8639 68.9741 12.9546 66.548 16.7262 66.4464 16.8841 66.3504 17.0455 66.26 17.21L61.86 26.28C61.5479 26.9204 61.1655 27.5241 60.72 28.08 54.5647 35.6765 46.9216 41.9345 38.26 46.47L15.26 58.47C9.8051 61.7156 6.4503 67.5827 6.42 73.93L6.42 74.21C6.42 79.3462 10.5838 83.51 15.72 83.51L29.51 83.51C30.292 83.5046 30.9246 82.872 30.93 82.09 30.934 81.4692 30.6495 80.8818 30.16 80.5 28.171 79.0134 25.789 78.1441 23.31 78L18.92 78C18.0916 78 17.42 77.3284 17.42 76.5 17.42 75.6716 18.0916 75 18.92 75L30.38 75C37.3923 75.0042 44.3208 73.4752 50.68 70.52 48.4335 67.2436 47.234 63.3626 47.24 59.39 47.24 58.8377 47.6877 58.39 48.24 58.39 48.7923 58.39 49.24 58.8377 49.24 59.39 49.2434 64.5894 51.5237 69.5264 55.48 72.9 58.798 75.5616 62.9264 77.0083 67.18 77L76.83 77C77.5479 77.0108 78.1386 76.4376 78.1495 75.7197 78.1579 75.1567 77.8029 74.6521 77.27 74.47L74.38 73.72C73.1497 73.4037 71.9987 72.835 71 72.05 67.752 69.5116 65.8497 65.6222 65.84 61.5L65.84 59.4C72.6282 51.9528 76.8361 42.5166 77.84 32.49 78.0974 29.5971 80.07 27.1432 82.84 26.27L87.47 24.88C89.018 24.5216 90.0012 22.9982 89.69 21.44Z" fill="#716B4F"/></g></svg>