<svg width="96" height="96" xmlns="http://www.w3.org/2000/svg" xmlns:xlink="http://www.w3.org/1999/xlink" xml:space="preserve" overflow="hidden" viewBox="0 0 96 96" preserveAspectRatio="xMidYMid meet"><g><path d="M83.839 14.184 74.812 16.363C71.7792 17.0948 69.289 19.251 68.131 22.148L64.8 30.487 58.269 29 57.729 23.468 60.329 19.195 57.344 19.487 55.159 17.687 53.359 19.872 50.374 20.164 53.748 23.853 54.428 30.82C54.5114 31.6768 55.1337 32.3842 55.973 32.576L62.033 33.96 61.492 34.501 54.192 37.773C46.2654 41.3273 39.8194 47.5244 35.956 55.305L34.926 50.794C34.7343 49.9551 34.0275 49.3328 33.171 49.249L26.204 48.569 22.514 45.2 22.223 48.186 20.038 49.986 21.838 52.171 21.547 55.157 25.819 52.557 31.352 53.097 33.252 61.397C31.8924 64.5869 29.1264 66.9629 25.768 67.826 21.013 68.988 16.847 68.335 14.123 65.612 7.5 58.993 14.17 44.053 23.8 33.353 24.3031 32.7959 24.282 31.9425 23.752 31.411 23.4767 31.1371 23.1023 30.9864 22.714 30.993 22.3302 30.9991 21.9658 31.1625 21.706 31.445 9.445 44.678 1.352 62.312 10.917 71.876 17.158 78.117 28.617 77.364 39.447 70.932 39.9842 70.6088 40.5409 70.3192 41.114 70.065 41.4766 69.9069 41.8803 69.869 42.266 69.957L49.974 71.717 50.514 77.249 47.914 81.521 50.9 81.23 53.085 83.03 54.885 80.845 57.871 80.554 54.5 76.86 53.82 69.893C53.7362 69.0365 53.1139 68.3297 52.275 68.138L47.764 67.108C55.5429 63.2434 61.7382 56.7972 65.291 48.871L68.563 41.571 69.104 41.03 70.488 47.09C70.6797 47.9289 71.3865 48.5512 72.243 48.635L79.211 49.315 82.9 52.69 83.191 49.705 85.376 47.905 83.576 45.721 83.868 42.735 79.595 45.335 74.063 44.795 72.573 38.269 80.912 34.933C83.8101 33.7757 85.9676 31.2855 86.7 28.252L88.879 19.225C89.4198 16.9818 88.0397 14.725 85.7965 14.1842 85.1532 14.0291 84.4823 14.029 83.839 14.184Z" fill="#29AD3C"/></g></svg>