<svg width="96" height="96" xmlns="http://www.w3.org/2000/svg" xmlns:xlink="http://www.w3.org/1999/xlink" xml:space="preserve" overflow="hidden" viewBox="0 0 96 96" preserveAspectRatio="xMidYMid meet"><g><path d="M20.2 69.6C19.6 70.2 18.8 70.7 18 71L18 81C18 82.7 19.3 84 21 84 22.7 84 24 82.7 24 81L24 68.8C25.5 69.6 27.4 69.6 28.8 68.2L31.2 65.8C29.3 65.6 27.4 65.1 25.5 64.3L20.2 69.6Z" fill="#B2AC90"/><path d="M78.1 20.9C77.4 20.3 76.5 20 75.6 20L73.8 20C73.9 19.7 73.9 19.4 74 19.2 74 19 74.1 18.7 74.1 18.5 74.1 18.2 74 17.9 73.9 17.5 73.8 17.2 73.6 16.8 73.4 16.4 73 15.6 72.5 14.7 72 14 71.7 13.5 71.3 13.1 71 12.7 70.8 12.5 70.6 12.3 70.3 12.2 70.1 12.1 69.9 12 69.5 12 69.3 12 69.1 12 68.9 12.1 68.7 12.2 68.5 12.3 68.4 12.5 68.2 12.8 68.2 13 68.2 13.1 68.2 13.3 68.2 13.4 68.3 13.6 68.3 13.7 68.4 13.9 68.4 14 68.5 14.3 68.6 14.6 68.8 15 69.1 15.7 69.4 16.5 69.7 17.2 69.8 17.7 69.9 18.1 69.9 18.3 69.9 18.5 69.8 18.8 69.6 19.1 69.4 19.4 69.1 19.7 68.7 19.9L68.7 19.9 66 19.9 57 19.9C57 22.1 58.8 23.9 61 23.9L65 23.9C62.2 23.9 55 34.9 51 34.9L18 34.9C15.8 34.9 14 36.7 14 38.9L14 59.9 14 58.9C14 57.2 12.7 55.9 11 55.9 9.3 55.9 8 57.2 8 58.9L8 80.9C8 82.6 9.3 83.9 11 83.9 12.7 83.9 14 82.6 14 80.9L14 68.8C15.5 69.6 17.4 69.6 18.8 68.2L25.1 61.9C27.8 63.2 30.8 64 34 64L47 64 47 81C47 82.7 48.3 84 50 84 51.7 84 53 82.7 53 81L53 64 57 64 57 81C57 82.7 58.3 84 60 84 61.7 84 63 82.7 63 81L63 61.3C64.2 59.9 65 58 65 56L65 51C65 42.2 70.4 35 77 35L77 41C79.2 41 81 39.2 81 37L81 35 82 35C85.3 35 88 32.3 88 29L78.1 20.9Z" fill="#B2AC90"/></g></svg>