<svg width="96" height="96" xmlns="http://www.w3.org/2000/svg" xmlns:xlink="http://www.w3.org/1999/xlink" xml:space="preserve" overflow="hidden" viewBox="0 0 96 96" preserveAspectRatio="xMidYMid meet"><g><path d="M92 48 75 48 79.25 44.92 81.19 46.1 80.67 43.89 82.18 42.8 84.06 44 83.56 41.85 85.1 40.73 86.9 41.84 86.42 39.78 88 38.58 89.77 39.66 89.3 37.66 92.41 35.4C92.7401 35.1834 92.8596 34.7565 92.69 34.4L92.25 33.52C91.5351 32.0958 89.8741 31.4237 88.37 31.95L70 38 69.49 37.29C67.7244 34.8047 64.2783 34.2213 61.7931 35.9869 61.2888 36.3452 60.8483 36.7857 60.49 37.29L60 38C47.23 28 25.47 30.51 11.32 39.29 10.44 39.83 9.6 40.39 8.81 40.97L8.65 41.09 8.65 41.09C4.65 44.09 2 47.64 2 51.43 2 60 10.75 69 36.38 69L50.07 69C51.1387 68.9231 51.9427 67.9945 51.8658 66.9258 51.7966 65.9641 51.0317 65.1992 50.07 65.13L40.18 65.13C22.38 65.13 14.25 59.38 12.58 52.05L22 52.05 22 57.05C22 58.7069 23.3431 60.05 25 60.05L33 60.05C34.6233 60.0853 35.9679 58.7979 36.0032 57.1746 36.0047 57.103 36.0037 57.0315 36 56.96 35.9402 55.2721 34.5282 53.9494 32.84 54L28.15 54C28.8728 53.4836 29.4568 52.7966 29.85 52 31.2402 49.2558 30.1426 45.9042 27.3984 44.5141 27.3757 44.5025 27.3529 44.4912 27.33 44.48 26.8962 44.2625 26.6812 43.765 26.82 43.3 26.9783 42.7709 27.5355 42.4703 28.0647 42.6286 28.111 42.6424 28.1562 42.6596 28.2 42.68 31.6336 44.3859 33.2619 48.3797 32 52L32 52 45 52 45 57C45 58.6569 46.3431 60 48 60L56 60C57.6233 60.0353 58.9679 58.7479 59.0032 57.1246 59.0047 57.053 59.0037 56.9815 59 56.91 58.9137 55.2419 57.5096 53.9488 55.84 54L51.15 54C51.8728 53.4836 52.4568 52.7966 52.85 52 54.2402 49.2558 53.1426 45.9042 50.3984 44.5141 50.3757 44.5025 50.3529 44.4912 50.33 44.48 49.8962 44.2625 49.6812 43.765 49.82 43.3 49.9783 42.7709 50.5356 42.4703 51.0647 42.6286 51.111 42.6424 51.1562 42.6596 51.2 42.68 54.6336 44.3859 56.2619 48.3797 55 52L55 52 92 52C93.1046 52 94 51.1046 94 50 94 48.8954 93.1046 48 92 48Z" fill="#175F20"/></g></svg>