<svg width="96" height="96" xmlns="http://www.w3.org/2000/svg" xmlns:xlink="http://www.w3.org/1999/xlink" xml:space="preserve" overflow="hidden" viewBox="0 0 96 96" preserveAspectRatio="xMidYMid meet"><g><path d="M48.055 83.769C48.688 83.8748 49.3283 83.9313 49.97 83.938L56.006 84 69.472 84C70.4768 84.0223 71.3532 83.3212 71.552 82.336 71.7376 81.2471 71.0053 80.214 69.9164 80.0284 69.805 80.0094 69.6921 79.9999 69.579 80L66.332 80C65.7488 80.0009 65.2752 79.5289 65.2743 78.9457 65.2736 78.5455 65.4993 78.1794 65.857 78L65.857 78C71.6359 75.3518 74.1739 68.5203 71.5257 62.7414 70.4424 60.3775 68.5906 58.45 66.272 57.273 65.6497 56.9888 65.1974 56.4283 65.051 55.76 64.8571 54.6636 65.5888 53.6176 66.6852 53.4238 66.801 53.4033 66.9184 53.393 67.036 53.393L70.579 53.393 70.579 55C70.5782 56.1046 71.473 57.0006 72.5776 57.0014 72.6907 57.0015 72.8035 56.992 72.915 56.973 73.9002 56.7742 74.6013 55.8978 74.579 54.893L74.579 51.393C74.579 50.2884 73.6836 49.393 72.579 49.393L70.648 49.393C69.9087 49.4085 69.2411 48.953 68.986 48.259 68.6777 47.3757 69.1439 46.4097 70.0272 46.1014 70.116 46.0704 70.2073 46.0469 70.3 46.031 75.9 45.089 80 42.01 80 38.348 80 33.936 74.236 30.361 66.888 30.361L66.888 28.882C66.9104 27.9452 66.2278 27.1401 65.3 27.009 64.3322 26.9069 63.465 27.6087 63.3629 28.5764 63.3471 28.7258 63.3505 28.8765 63.373 29.025 63.417 29.2861 63.4401 29.5502 63.442 29.815 63.6232 33.3817 61.9659 36.793 59.05 38.855L58.565 39.217C49.1934 42.7848 42.04 50.5447 39.245 60.175L39.226 60.243C38.9755 61.0598 38.1102 61.5189 37.2934 61.2684 36.6438 61.0692 36.2003 60.4694 36.2 59.79 36.1839 58.5905 36.4101 57.4 36.865 56.29 37.723 54.29 43.552 46.89 47.616 42.998 52.888 37.953 54.388 34.138 54.388 27.998 54.388 14.891 37.508 8.21 25.435 14.198 20.235 16.779 15.735 23.732 15.035 29.498 14.8535 30.9872 14.8354 32.4918 14.981 33.985 15.1194 35.0987 16.1343 35.8893 17.248 35.751 17.9795 35.6601 18.6044 35.1802 18.881 34.497 20.881 29.997 23.881 25.997 27.881 27.997 31.222 29.668 30.881 32.997 29.069 35.873 20.2714 49.5167 22.8861 67.5591 35.195 78.144 38.5547 81.0041 42.6342 82.8884 46.99 83.592Z" fill="#AA5E0A"/></g></svg>