<svg width="96" height="96" xmlns="http://www.w3.org/2000/svg" xmlns:xlink="http://www.w3.org/1999/xlink" xml:space="preserve" overflow="hidden" viewBox="0 0 96 96" preserveAspectRatio="xMidYMid meet"><g><path d="M63.262 19.248C63.4504 18.3633 63.7735 17.5127 64.22 16.726 69.89 15.759 74.377 13.654 75.52 11.559 73.223 10.6967 70.7842 10.2744 68.331 10.314 66.9405 10.3102 65.5526 10.4347 64.185 10.686 60.9813 8.48421 57.0681 7.56461 53.219 8.109 47.915 8.688 41.4 12 41.4 20.466L41.3 26.266C41.2133 29.9839 39.0355 33.3344 35.673 34.923 26.0414 39.5784 18.6498 47.8644 15.12 57.963 14.7414 59.0153 15.2875 60.1754 16.3399 60.554 16.8715 60.7453 17.4588 60.7057 17.96 60.445L33.46 52.315C32.0709 59.5247 31.1923 66.8235 30.831 74.157 30.581 79.73 25.391 82.138 21.3 85 20.5533 85.5204 20.3699 86.5476 20.8903 87.2943 21.198 87.7358 21.7019 87.9992 22.24 88L67.869 88 64.869 85 67.869 82 59.205 82C66.193 71.727 72.817 59.291 72.817 44 72.817 36.526 69.401 31.7 66.656 27.813 64.744 25.113 63.304 23.065 63.163 20.786L63.163 20.786ZM54.23 82.161 44.238 84.075C49.113 77.464 55.5 60.981 57.727 51.3 60.064 41.143 57.637 33.6 55.957 30.155 53.725 25.572 47.495 23.936 46.47 21.768 45.445 19.6 48.828 15.359 50.645 17.568 51.885 19.068 51.671 23.125 55.165 22.61 56.665 22.39 57.552 21.491 59.165 20.998 59.38 24.444 61.405 27.315 63.392 30.124 66.058 33.9 68.817 37.8 68.817 44 68.817 59.416 61.443 71.942 54.23 82.161Z" fill="#373644"/></g></svg>