<svg width="96" height="96" xmlns="http://www.w3.org/2000/svg" xmlns:xlink="http://www.w3.org/1999/xlink" xml:space="preserve" overflow="hidden" viewBox="0 0 96 96" preserveAspectRatio="xMidYMid meet"><g><path d="M79.6 71.8C78 71.4 76.3 72.5 76 74.1 76 74.3 75.9 74.4 75.9 74.6 75.9 74.9 75.9 75.1 75.1 75.4 73.4 76 71.5 76.1 69.7 75.9L69.7 75.9C67.8 75.8 66.1 75 64.8 73.7 62.9 71.7 61.7 69.1 61.3 66.3 69.2 69.7 78.4 66 81.8 58 84 52.8 83.2 46.8 79.8 42.4 78.8 41.1 77.1 40.8 75.7 41.6 74.3 42.5 73.8 44.3 74.7 45.8 74.7 45.9 74.8 45.9 74.8 46 75.3 46.6 75.8 47.4 76.1 48.1 77.2 50.6 77.1 53.5 75.9 56 74.6 58.7 71.9 60.4 68.9 60.5L68.8 60.5C64.1 60.6 60.2 56.8 60.1 52.1 60.1 49.9 60.9 47.8 62.3 46.2 66.4 42 69.2 36.6 69.2 31.6 69.2 21.3 59.6 14.2 47.8 14.2 36 14.2 26.4 21.3 26.4 31.6 26.4 36.6 29.1 42.1 33.3 46.2 35 48.1 35.8 50.7 35.5 53.2 34.7 57.4 31.1 60.4 26.9 60.5 26.1 60.5 25.3 60.4 24.6 60.2 23.2 59.8 21.9 59 21 57.9 18.8 55.1 18.3 51.4 19.7 48.1 20 47.3 20.5 46.6 21 46 22 44.7 21.7 42.8 20.4 41.8 20.3 41.7 20.3 41.7 20.2 41.7 18.8 40.9 17.1 41.2 16.2 42.5 14 45.3 12.9 48.8 13 52.3 13.2 60.2 19.2 66.7 27.1 67.6 29.7 67.9 32.3 67.5 34.7 66.5 34.4 68.8 33.5 71.1 32 72.9 30.6 74.7 28.5 75.8 26.3 76L26.3 76C24.5 76.2 22.7 76.1 20.9 75.5 20.1 75.2 20.1 75.1 20.1 74.7 20 73 18.6 71.8 16.9 71.8 15.2 71.8 13.9 73.3 14 75 14.1 77.8 16 80.3 18.7 81.1 20.5 81.8 22.5 82.1 24.4 82 25.1 82 25.8 82 26.6 81.9 34.5 81.2 41.5 76.4 45 69.3 45.8 67.7 47.7 67.1 49.2 67.9 49.8 68.2 50.3 68.7 50.6 69.3 54.1 76.4 61.1 81.2 69 81.9 70 82 70.7 82 71.4 82 73.4 82 75.3 81.7 77.1 81.1 79.7 80.3 81.6 78 81.8 75.3 82.1 73.7 81.1 72.3 79.6 71.8ZM42.5 45.7C41.1 45.7 40 44.6 40 43.2 40 41.8 41.1 40.7 42.5 40.7 43.9 40.7 45 41.8 45 43.2L45 43.2C45 44.6 43.8 45.7 42.5 45.7ZM53.5 45.7C52.1 45.7 51 44.6 51 43.2 51 41.8 52.1 40.7 53.5 40.7 54.9 40.7 56 41.8 56 43.2L56 43.2C56.1 44.6 54.9 45.7 53.5 45.7Z" fill="#A92F1B"/></g></svg>