<svg width="96" height="96" xmlns="http://www.w3.org/2000/svg" xmlns:xlink="http://www.w3.org/1999/xlink" xml:space="preserve" overflow="hidden" viewBox="0 0 96 96" preserveAspectRatio="xMidYMid meet"><g><path d="M27.716 38.384C26.7916 38.5381 25.8985 38.8421 25.072 39.284 24.881 39.39 24.69 39.507 24.501 39.634 20.337 42.42 18.678 46.034 17.075 49.528 16.661 50.428 16.233 51.364 15.763 52.281 13.052 57.581 9.604 60.705 4.583 62.422L3.691 62.728C3.1686 62.9072 2.8904 63.476 3.06962 63.9984 3.13431 64.187 3.25389 64.3519 3.413 64.472L4.166 65.04C7.44058 67.38 11.3318 68.7037 15.354 68.846 17.488 68.8547 19.5962 68.3795 21.52 67.456 26.576 65.03 28.514 60.229 29.393 56.323L29.393 70.839C29.3697 72.4899 30.6543 73.8646 32.303 73.953 33.9298 74.0311 35.312 72.7757 35.3901 71.1489 35.3932 71.0836 35.3942 71.0183 35.393 70.953L35.393 62.853C36.9436 63.7663 38.9149 63.5199 40.193 62.253L44.57 57.877 61.406 61.8 61.406 70.833C61.3722 72.471 62.6131 73.8552 64.245 74 65.8995 74.0889 67.3128 72.8198 67.4017 71.1653 67.4046 71.1103 67.4061 71.0551 67.406 71L67.406 60.742 76.242 69.578C77.4131 70.7501 79.3126 70.7509 80.4846 69.5799 80.5393 69.5253 80.5917 69.4686 80.642 69.41 81.6496 68.1556 81.5334 66.3396 80.374 65.224L71.639 56.489 74.707 54.317C76.1556 53.2915 77.3959 51.9999 78.362 50.511L81.749 45.291 86.122 46.048C87.752 46.3301 89.4295 46.0879 90.913 45.356L92.048 44.796C92.8954 44.3779 93.2434 43.3519 92.8253 42.5045 92.7194 42.29 92.5698 42.1001 92.386 41.947L88.408 38.632 86.63 34.941C85.9061 33.4362 84.7484 32.1824 83.306 31.341L80.822 29.892 75.2 23.63C74.8207 23.2075 74.1708 23.1724 73.7483 23.5517 73.531 23.7468 73.4069 24.025 73.407 24.317L73.407 30.632 65.146 37.275C63.4514 38.6372 61.2839 39.2681 59.123 39.028L43.967 37.339C40.0999 36.9856 36.2047 37.0863 32.361 37.639 31.616 37.768 31.076 37.809 28.809 38.176ZM20.223 64.75C15.771 66.886 11.147 65.402 8.415 64.07 12.3595 62.0591 15.5961 58.8919 17.692 54.992 18.0216 56.6244 18.0767 58.3004 17.855 59.951L17.536 61.9 19.495 61.691C21.2677 61.4668 23.0121 61.0582 24.7 60.472 23.6884 62.3285 22.1235 63.8238 20.223 64.75Z" fill="#DA780C"/><path d="M38.406 65.314 38.406 71C38.406 72.6569 39.7491 74 41.406 74 43.0629 74 44.406 72.6569 44.406 71L44.406 60.87 41.606 63.67C40.7399 64.5424 39.6196 65.118 38.406 65.314Z" fill="#DA780C"/></g></svg>