<svg width="96" height="96" xmlns="http://www.w3.org/2000/svg" xmlns:xlink="http://www.w3.org/1999/xlink" xml:space="preserve" overflow="hidden" viewBox="0 0 96 96" preserveAspectRatio="xMidYMid meet"><g><path d="M84.5 51C82.3 51 80.4 51.6 78.8 52.4 69.3 57.4 59 60.7 48.4 60.9 47.4 60.9 46.5 60.9 45.5 60.9 29.8 61 15.4 57.9 4 52.7 4 56.4 6.3 59.8 9.8 61.1 10.8 61.5 11.9 61.8 12.9 62.2L12 67.4C11.6 69.6 13.1 71.6 15.3 72 15.5 72 15.7 72.1 16 72.1 17.9 72.1 19.6 70.7 19.9 68.8L20.6 64.4C28.3 66.2 36.6 67.2 45.4 67.2 50.5 67.2 55.4 66.9 60.1 66.3 60.6 66.2 61 66.2 61.5 66.1L62 68.9C62.3 70.9 64 72.2 65.9 72.2 66.1 72.2 66.3 72.2 66.6 72.1 68.8 71.7 70.3 69.7 69.9 67.5L69.5 65.4C74.5 65 79.5 65 84.4 65 84.4 65 84.4 65 84.5 65 88.6 65 92 61.9 92 58 92 54.1 88.6 51 84.5 51Z" fill="#536C32"/><path d="M48.3 57C55.9 56.8 63.7 55 71.7 51.5 69.4 35.9 56.1 24 40 24 24.3 24 11.2 35.3 8.5 50.3 19.2 54.7 32.2 57 45.5 57 46.4 57 47.4 57 48.3 57Z" fill="#536C32"/></g></svg>