<svg width="96" height="96" xmlns="http://www.w3.org/2000/svg" xmlns:xlink="http://www.w3.org/1999/xlink" xml:space="preserve" overflow="hidden" viewBox="0 0 96 96" preserveAspectRatio="xMidYMid meet"><g><path d="M9.6 35.476C6.70447 37.7472 5.00934 41.22 5 44.9L5 59.957C5.05009 61.2909 4.55386 62.5874 3.626 63.547 2.81778 64.2999 2.77292 65.5654 3.52581 66.3736 4.27871 67.1819 5.54424 67.2267 6.35247 66.4738 6.3734 66.4543 6.39392 66.4344 6.414 66.414 8.0752 64.7619 9.0064 62.5139 9 60.171L9 44.9C9.00937 42.9662 9.72 41.1015 11 39.652L11 77.884C10.9761 79.5355 12.2607 80.911 13.91 81 15.5368 81.0781 16.919 79.8227 16.9971 78.1959 17.0002 78.1307 17.0012 78.0653 17 78L17 57.4C18.5506 58.3133 20.5219 58.0669 21.8 56.8L27.48 51.12 45 55.455 45 77.831C44.9652 79.4701 46.2069 80.8556 47.84 81 49.4945 81.0884 50.9074 79.8188 50.9957 78.1643 50.9987 78.1096 51.0001 78.0548 51 78L51 56.94 51.243 57 55 56.061 55 77.831C54.9652 79.4701 56.2069 80.8556 57.84 81 59.4945 81.0884 60.9074 79.8188 60.9957 78.1643 60.9987 78.1096 61.0001 78.0548 61 78L61 54.294 73.078 50.715C78.5142 49.1049 82.2434 44.1106 82.243 38.441L82.243 28.42C82.245 26.9101 83.4707 25.6877 84.9807 25.6897 85.4074 25.6903 85.8281 25.7907 86.209 25.983L86.285 26.021C87.5311 26.6438 88.9837 26.7052 90.278 26.19L91.256 25.802C92.3654 25.2614 93.0436 24.1094 92.978 22.877 93.1273 20.1481 91.1026 17.7849 88.383 17.514L83.243 17 83.029 16.839C82.2372 16.2254 81.3382 15.7643 80.378 15.479 77.1063 14.4419 73.5933 16.1349 72.366 19.34L71.8 20.856C70.7726 23.5968 70.2463 26.5 70.246 29.427L70.246 36.673C70.2804 38.1563 69.3166 39.4787 67.894 39.9 66.5064 40.268 65.0448 39.657 64.332 38.411L64.175 38.088C63.6334 36.9376 63.285 35.7057 63.144 34.442L63.144 34.425C62.4052 29.0791 58.2114 24.871 52.868 24.114 50.6053 23.8078 48.5939 22.5162 47.374 20.586 43.8476 14.9936 36.4554 13.3187 30.8629 16.845 30.2175 17.252 29.6124 17.7198 29.056 18.242Z" fill="#CC9900"/><path d="M23.2 58.2C22.5713 58.8137 21.8222 59.2904 21 59.6L21 78C21 79.6569 22.3431 81 24 81 25.6569 81 27 79.6569 27 78L27 57.4C28.5506 58.3133 30.5219 58.0669 31.8 56.8L34.2 54.4C32.2365 54.1834 30.3158 53.678 28.5 52.9Z" fill="#CC9900"/></g></svg>