<svg width="96" height="96" xmlns="http://www.w3.org/2000/svg" xmlns:xlink="http://www.w3.org/1999/xlink" xml:space="preserve" overflow="hidden" viewBox="0 0 96 96" preserveAspectRatio="xMidYMid meet"><g><path d="M22 67.5C22 69.7 23.8 71.5 26 71.5 28.2 71.5 30 69.7 30 67.5L30 63C27.3 62.8 24.6 62.4 22 61.9L22 67.5Z" fill="#49475B"/><path d="M66.4 26.6 53.4 26.6 31.7 26.5 18.1 26.5C9.3 26.5 2.1 33.7 2.1 42.5L2.1 46.1 5.2 44.7C5.6 48.9 7.7 52.7 10.9 55.3L10.9 55.3 10.9 67.5C10.9 69.7 12.7 71.5 14.9 71.5 17.1 71.5 18.9 69.7 18.9 67.5L18.9 59.2C24.6 60.7 30.4 61.4 36.3 61.3 40.2 61.3 44.1 61 47.9 60.4L47.9 67.5C47.9 69.7 49.7 71.5 51.9 71.5 54.1 71.5 55.9 69.7 55.9 67.5L55.9 58.4C56.9 58 57.9 57.6 58.9 57.1L58.9 67.4C58.9 69.6 60.7 71.4 62.9 71.4 65.1 71.4 66.9 69.6 66.9 67.4L66.9 51.8 67.3 50.8C68.6 47.4 72.2 45.4 75.8 46.1L77.6 46.4C83 47.7 88.7 46.4 91.6 41.7L92.4 40.4C93 39.4 93.4 38.2 93.4 37.1 93.4 34.9 91.6 33.1 89.4 33.1 88.7 33.1 88.1 33.3 87.5 33.6L87 33.9 78.6 30.2C78.6 30.1 78.6 30.1 78.6 30 78.6 27.8 76.9 26.1 74.7 26.1 73.6 26.1 72.6 26.5 71.9 27.3L70.8 26.8 71.7 24.5C72.8 21.9 70.1 19.6 67.2 20.6 64.3 21.6 63.6 24.9 65.9 26.4L66.4 26.6 66.4 26.6Z" fill="#49475B"/></g></svg>