<svg width="96" height="96" xmlns="http://www.w3.org/2000/svg" xmlns:xlink="http://www.w3.org/1999/xlink" xml:space="preserve" overflow="hidden" viewBox="0 0 96 96" preserveAspectRatio="xMidYMid meet"><g><path d="M85 17.6C84.9566 16.9728 84.6864 16.3827 84.24 15.94L81.81 13.52C81.4732 13.1789 81.2258 12.7598 81.09 12.3L80.58 10.56C80.2919 9.57892 79.6066 8.76307 78.69 8.31L76.6 7.59 77.19 4.8C77.564 4.58718 77.8268 4.22215 77.91 3.8 77.9704 2.97378 77.3496 2.25502 76.5234 2.19462 75.8493 2.14534 75.2256 2.55291 75 3.19 74.9035 3.60558 74.999 4.04253 75.26 4.38L74.69 7 74.63 7 74.12 4.42C74.6053 3.74857 74.4543 2.81089 73.7829 2.32563 73.1115 1.84037 72.1738 1.99129 71.6885 2.66272 71.2033 3.33415 71.3542 4.27183 72.0256 4.75709 72.0563 4.77924 72.0878 4.80023 72.12 4.82L72.6 7C72.3138 7.05491 72.0417 7.16716 71.8 7.33L71.04 7.83 67.48 7.03C67.0453 6.92428 66.6072 7.19095 66.5015 7.62562 66.4404 7.87699 66.503 8.14244 66.67 8.34L68.61 10.39 46.84 44.3C46.3249 45.1077 45.5005 45.6681 44.56 45.85L27 50.5C26.3581 50.6221 25.7288 50.8028 25.12 51.04 19.249 52.1947 15.0116 57.3365 15 63.32L15 74.51C14.999 75.4251 14.5115 76.2707 13.72 76.73 13.002 77.1433 12.755 78.0604 13.1683 78.7783 13.4363 79.2439 13.9328 79.5306 14.47 79.53 14.7335 79.5322 14.9926 79.4631 15.22 79.33 16.9373 78.3314 17.9956 76.4965 18 74.51L18 63.32C18.0009 61.0479 18.817 58.8515 20.3 57.13 20.0652 58.47 19.9647 59.8301 20 61.19L20 64.7 20 70 20 90.66C20 92.3169 21.3431 93.66 23 93.66 24.6569 93.66 26 92.3169 26 90.66L26 69.32 42 67.55 42 90.66C42 92.3169 43.3431 93.66 45 93.66 46.6569 93.66 48 92.3169 48 90.66L48 66.88 50 66.66 50 90.66C50 92.3169 51.3431 93.66 53 93.66 54.6569 93.66 56 92.3169 56 90.66L56 66 56 66 59.63 60.64C60.5144 59.5749 60.9989 58.2344 61 56.85L61 52.31C60.9988 51.1071 61.1913 49.9118 61.57 48.77L73.05 17.36C73.4316 16.5763 74.3757 16.2497 75.16 16.63L76.41 17.23C76.8803 17.4597 77.3966 17.5794 77.92 17.58L80.09 17.58C80.3998 17.5772 80.7006 17.6834 80.94 17.88L81.94 18.69C82.2755 18.9712 82.722 19.0819 83.15 18.99L83.89 18.84 85.12 18.5Z" fill="#92832A"/><path d="M28 90.66C28 92.3169 29.3431 93.66 31 93.66 32.6569 93.66 34 92.3169 34 90.66L34 70.45 28 71.11Z" fill="#92832A"/></g></svg>